<svg width="285" height="217" viewBox="0 0 285 217" fill="none" xmlns="http://www.w3.org/2000/svg">
<g id="animation-polygon">
<g id="small-down">
<path id="small-down8" d="M142.5 95L129 108.5L142.5 122.5L156 108.5L142.5 95Z" fill="#4DB499" stroke="#4DB499"/>
<path id="small-down7" d="M142.5 95L129 108.5L142.5 122.5L156 108.5L142.5 95Z" fill="#4DB499" stroke="#4DB499"/>
<path id="small-down6" d="M142.5 95L129 108.5L142.5 122.5L156 108.5L142.5 95Z" fill="#4DB499" stroke="#4DB499"/>
<path id="small-down5" d="M142.5 95L129 108.5L142.5 122.5L156 108.5L142.5 95Z" fill="#4DB499" stroke="#4DB499"/>
<path id="small-down4" d="M142.5 95L129 108.5L142.5 122.5L156 108.5L142.5 95Z" fill="#4DB499" stroke="#4DB499"/>
<path id="small-down3" d="M142.5 95L129 108.5L142.5 122.5L156 108.5L142.5 95Z" fill="#4DB499" stroke="#4DB499"/>
<path id="small-down2" d="M142.5 95L129 108.5L142.5 122.5L156 108.5L142.5 95Z" fill="#4DB499" stroke="#4DB499"/>
<path id="small-down1" d="M142.5 95L129 108.5L142.5 122.5L156 108.5L142.5 95Z" fill="#4DB499" stroke="#4DB499"/>
</g>
<path id="small-medio" d="M142 91L124 109L142 128L160.5 109.5L142 91Z" fill="#4DB499" stroke="#4DB499"/>
<path id="big" d="M142 73L106 109L142 145L178 109L142 73Z" fill="#4DB499" stroke="#4DB499"/>
<g id="small-up">
<g id="Group 1">
<path id="small-up1" d="M142.5 1L129 14.5L142.5 28.5L156 14.5L142.5 1Z" fill="#4DB499" stroke="#4DB499"/>
<path id="small-up2" d="M185.5 46L172 59.5L185.5 73.5L199 59.5L185.5 46Z" fill="#4DB499" stroke="#4DB499"/>
<path id="small-up3" d="M232.5 93L219 106.5L232.5 120.5L246 106.5L232.5 93Z" fill="#4DB499" stroke="#4DB499"/>
<path id="small-up4" d="M187.5 140L174 153.5L187.5 167.5L201 153.5L187.5 140Z" fill="#4DB499" stroke="#4DB499"/>
<path id="small-up5" d="M142.5 183L129 196.5L142.5 210.5L156 196.5L142.5 183Z" fill="#4DB499" stroke="#4DB499"/>
<path id="small-up6" d="M88.5 140L75 153.5L88.5 167.5L102 153.5L88.5 140Z" fill="#4DB499" stroke="#4DB499"/>
<path id="small-up7" d="M52.5 93L39 106.5L52.5 120.5L66 106.5L52.5 93Z" fill="#4DB499" stroke="#4DB499"/>
<path id="small-up8" d="M95.5 46L82 59.5L95.5 73.5L109 59.5L95.5 46Z" fill="#4DB499" stroke="#4DB499"/>
</g>
</g>
</g>
</svg>
